<svg width="361" height="287" viewBox="0 0 361 287" fill="none" xmlns="http://www.w3.org/2000/svg">
<path d="M2.432 134V46.96H21.888V134H2.432ZM39.729 135.536C36.9983 135.536 34.5663 134.896 32.433 133.616C30.385 132.336 28.7637 130.501 27.569 128.112C26.3743 125.723 25.777 122.864 25.777 119.536C25.777 115.696 26.4597 112.496 27.825 109.936C29.1903 107.376 30.9397 105.285 33.073 103.664C35.2063 101.957 37.425 100.635 39.729 99.696C42.1183 98.672 44.2517 97.8187 46.129 97.136C48.2623 96.368 49.8837 95.6 50.993 94.832C52.1877 94.064 52.9983 93.1253 53.425 92.016C53.8517 90.9067 54.065 89.4987 54.065 87.792C54.065 85.9147 53.8517 84.464 53.425 83.44C53.0837 82.3307 52.6143 81.52 52.017 81.008C51.4197 80.496 50.7797 80.24 50.097 80.24C49.329 80.24 48.561 80.624 47.793 81.392C47.025 82.0747 46.4703 83.4827 46.129 85.616C45.7877 87.664 45.8303 90.7787 46.257 94.96L27.057 92.912C26.801 87.1093 27.3557 82.3733 28.721 78.704C30.0863 75.0347 31.9637 72.2187 34.353 70.256C36.7423 68.208 39.3877 66.8 42.289 66.032C45.1903 65.264 48.049 64.88 50.865 64.88C54.6197 64.88 57.905 65.4347 60.721 66.544C63.537 67.6533 65.8837 69.36 67.761 71.664C69.6383 73.968 71.0463 76.912 71.985 80.496C73.009 84.08 73.521 88.304 73.521 93.168V109.424C73.521 112.155 73.521 114.885 73.521 117.616C73.521 120.347 73.521 123.077 73.521 125.808C73.521 128.539 73.521 131.269 73.521 134H56.369C56.369 131.099 56.369 128.24 56.369 125.424C56.369 122.523 56.369 119.621 56.369 116.72H55.345C55.0037 120.816 54.1503 124.272 52.785 127.088C51.4197 129.904 49.6277 132.037 47.409 133.488C45.1903 134.853 42.6303 135.536 39.729 135.536ZM48.817 119.664C49.6703 119.664 50.3957 119.408 50.993 118.896C51.5903 118.299 52.1023 117.573 52.529 116.72C52.9557 115.781 53.2543 114.757 53.425 113.648C53.681 112.539 53.809 111.429 53.809 110.32V101.232L56.497 99.184C55.8143 100.208 55.0463 101.104 54.193 101.872C53.3397 102.555 52.4437 103.195 51.505 103.792C50.6517 104.304 49.7983 104.859 48.945 105.456C48.177 106.053 47.4943 106.693 46.897 107.376C46.2997 108.059 45.7877 108.912 45.361 109.936C45.0197 110.96 44.849 112.197 44.849 113.648C44.849 115.952 45.233 117.531 46.001 118.384C46.8543 119.237 47.793 119.664 48.817 119.664ZM77.283 134V118.384L99.683 82.16V81.776H77.795V66.416H120.163V82.288L97.891 118.384V118.64H119.651V134H77.283ZM141.977 152.304C139.161 152.304 136.43 152.005 133.785 151.408C131.225 150.896 128.836 150.128 126.617 149.104C124.484 148.165 122.606 147.099 120.985 145.904L126.489 128.496C128.281 130.8 130.329 132.549 132.633 133.744C135.022 134.853 137.668 135.408 140.569 135.408C142.958 135.408 145.006 134.981 146.713 134.128C148.42 133.36 149.828 132.123 150.937 130.416C152.046 128.624 152.9 126.405 153.497 123.76C154.18 121.029 154.649 117.829 154.905 114.16L155.417 105.84H153.497C153.668 111.813 153.07 116.592 151.705 120.176C150.425 123.76 148.59 126.32 146.201 127.856C143.897 129.392 141.337 130.16 138.521 130.16C135.62 130.16 133.23 129.52 131.353 128.24C129.561 126.875 128.153 125.168 127.129 123.12C126.105 120.987 125.337 118.725 124.825 116.336C124.398 113.861 124.142 111.515 124.057 109.296C123.972 106.992 123.929 105.029 123.929 103.408V66.416H143.641V97.648C143.641 99.0987 143.641 100.549 143.641 102C143.726 103.451 143.812 104.816 143.897 106.096C143.982 107.376 144.153 108.485 144.409 109.424C144.75 110.363 145.177 111.131 145.689 111.728C146.201 112.24 146.841 112.496 147.609 112.496C148.633 112.496 149.401 112.069 149.913 111.216C150.51 110.277 150.937 108.997 151.193 107.376C151.449 105.755 151.62 103.835 151.705 101.616C151.79 99.3973 151.833 96.9653 151.833 94.32V66.416H171.417V112.24C171.417 113.605 171.332 115.568 171.161 118.128C171.076 120.603 170.777 123.376 170.265 126.448C169.753 129.435 168.9 132.421 167.705 135.408C166.51 138.48 164.846 141.296 162.713 143.856C160.58 146.416 157.806 148.464 154.393 150C151.065 151.536 146.926 152.304 141.977 152.304ZM25.216 235.536C20.096 235.536 15.8293 234.811 12.416 233.36C9.088 231.824 6.528 229.776 4.736 227.216C3.02933 224.571 2.00533 221.627 1.664 218.384C1.408 215.141 1.83467 211.728 2.944 208.144L20.224 206.608C19.968 209.168 19.8827 211.685 19.968 214.16C20.0533 216.549 20.48 218.512 21.248 220.048C22.1013 221.584 23.424 222.352 25.216 222.352C26.4107 222.352 27.3067 221.925 27.904 221.072C28.5867 220.219 28.928 218.853 28.928 216.976C28.928 214.501 28.3733 212.453 27.264 210.832C26.1547 209.211 24.6613 207.803 22.784 206.608C20.992 205.413 18.9867 204.261 16.768 203.152C15.0613 202.213 13.312 201.232 11.52 200.208C9.728 199.099 8.064 197.819 6.528 196.368C5.07733 194.832 3.88267 193.04 2.944 190.992C2.00533 188.859 1.536 186.341 1.536 183.44C1.536 179.6 2.38933 176.315 4.096 173.584C5.888 170.768 8.448 168.635 11.776 167.184C15.1893 165.648 19.3707 164.88 24.32 164.88C29.0987 164.88 33.2373 165.691 36.736 167.312C40.32 168.933 43.008 171.536 44.8 175.12C46.592 178.619 47.1893 183.312 46.592 189.2L29.696 191.504C29.952 189.029 29.9093 186.853 29.568 184.976C29.2267 183.013 28.6293 181.477 27.776 180.368C26.9227 179.259 25.7707 178.704 24.32 178.704C23.04 178.704 22.0587 179.173 21.376 180.112C20.7787 180.965 20.48 182.075 20.48 183.44C20.48 184.976 20.9067 186.299 21.76 187.408C22.6133 188.517 23.7653 189.499 25.216 190.352C26.6667 191.205 28.288 192.101 30.08 193.04C32.2133 194.149 34.3467 195.387 36.48 196.752C38.6987 198.117 40.704 199.739 42.496 201.616C44.288 203.408 45.696 205.541 46.72 208.016C47.8293 210.405 48.384 213.221 48.384 216.464C48.384 219.963 47.5733 223.163 45.952 226.064C44.416 228.965 41.9413 231.269 38.528 232.976C35.2 234.683 30.7627 235.536 25.216 235.536ZM66.399 235.536C63.4977 235.536 61.1083 234.853 59.231 233.488C57.3537 232.123 55.903 230.373 54.879 228.24C53.855 226.021 53.087 223.675 52.575 221.2C52.1483 218.64 51.8923 216.208 51.807 213.904C51.7217 211.515 51.679 209.509 51.679 207.888V166.416H71.519V202.128C71.519 204.005 71.519 205.84 71.519 207.632C71.6043 209.339 71.775 210.917 72.031 212.368C72.287 213.733 72.671 214.843 73.183 215.696C73.695 216.464 74.463 216.848 75.487 216.848C76.511 216.848 77.279 216.421 77.791 215.568C78.3883 214.629 78.815 213.392 79.071 211.856C79.327 210.235 79.455 208.315 79.455 206.096C79.5403 203.792 79.583 201.317 79.583 198.672V166.416H99.295V202.896V234H82.399V209.296H81.375C81.375 216.037 80.6923 221.328 79.327 225.168C78.047 228.923 76.255 231.611 73.951 233.232C71.7323 234.768 69.215 235.536 66.399 235.536ZM104.182 234V192.656V166.416H121.078V190.096H122.102C122.102 183.867 122.699 178.917 123.894 175.248C125.089 171.579 126.795 168.933 129.014 167.312C131.233 165.691 133.878 164.88 136.95 164.88C139.083 164.88 140.961 165.264 142.582 166.032C144.289 166.715 145.739 167.781 146.934 169.232C148.129 170.683 149.11 172.475 149.878 174.608C150.646 176.741 151.201 179.259 151.542 182.16C151.883 184.976 152.054 188.133 152.054 191.632V234H132.214V198.416C132.214 196.624 132.171 194.875 132.086 193.168C132.086 191.376 131.958 189.755 131.702 188.304C131.446 186.853 131.062 185.701 130.55 184.848C130.038 183.995 129.27 183.568 128.246 183.568C126.795 183.568 125.771 184.507 125.174 186.384C124.577 188.261 124.193 190.651 124.022 193.552C123.937 196.453 123.894 199.525 123.894 202.768V234H104.182ZM174.215 235.536C170.29 235.536 166.962 234.128 164.231 231.312C161.586 228.496 159.58 224.443 158.215 219.152C156.85 213.861 156.167 207.589 156.167 200.336C156.167 192.229 156.935 185.573 158.471 180.368C160.007 175.163 162.012 171.323 164.487 168.848C167.047 166.373 169.863 165.136 172.935 165.136C175.666 165.136 177.927 166.032 179.719 167.824C181.596 169.616 183.09 172.219 184.199 175.632C185.394 178.96 186.29 183.013 186.887 187.792H188.167C187.655 184.891 187.186 182.075 186.759 179.344C186.418 176.613 186.119 174.053 185.863 171.664C185.607 169.189 185.479 166.928 185.479 164.88V146.96H205.191V202.256V234H188.295V214.672H187.271C186.844 219.963 186.034 224.144 184.839 227.216C183.73 230.288 182.279 232.464 180.487 233.744C178.695 234.939 176.604 235.536 174.215 235.536ZM180.359 220.688C181.212 220.688 181.938 220.219 182.535 219.28C183.218 218.341 183.772 217.104 184.199 215.568C184.626 213.947 184.924 212.155 185.095 210.192C185.351 208.229 185.479 206.224 185.479 204.176V201.488C185.479 199.269 185.394 197.179 185.223 195.216C185.052 193.253 184.796 191.461 184.455 189.84C184.199 188.219 183.858 186.853 183.431 185.744C183.004 184.549 182.535 183.653 182.023 183.056C181.511 182.459 180.914 182.16 180.231 182.16C179.378 182.16 178.652 182.843 178.055 184.208C177.458 185.488 176.988 187.579 176.647 190.48C176.391 193.296 176.263 196.965 176.263 201.488C176.263 205.499 176.391 208.955 176.647 211.856C176.903 214.757 177.33 216.976 177.927 218.512C178.524 219.963 179.335 220.688 180.359 220.688ZM222.979 235.536C220.248 235.536 217.816 234.896 215.683 233.616C213.635 232.336 212.014 230.501 210.819 228.112C209.624 225.723 209.027 222.864 209.027 219.536C209.027 215.696 209.71 212.496 211.075 209.936C212.44 207.376 214.19 205.285 216.323 203.664C218.456 201.957 220.675 200.635 222.979 199.696C225.368 198.672 227.502 197.819 229.379 197.136C231.512 196.368 233.134 195.6 234.243 194.832C235.438 194.064 236.248 193.125 236.675 192.016C237.102 190.907 237.315 189.499 237.315 187.792C237.315 185.915 237.102 184.464 236.675 183.44C236.334 182.331 235.864 181.52 235.267 181.008C234.67 180.496 234.03 180.24 233.347 180.24C232.579 180.24 231.811 180.624 231.043 181.392C230.275 182.075 229.72 183.483 229.379 185.616C229.038 187.664 229.08 190.779 229.507 194.96L210.307 192.912C210.051 187.109 210.606 182.373 211.971 178.704C213.336 175.035 215.214 172.219 217.603 170.256C219.992 168.208 222.638 166.8 225.539 166.032C228.44 165.264 231.299 164.88 234.115 164.88C237.87 164.88 241.155 165.435 243.971 166.544C246.787 167.653 249.134 169.36 251.011 171.664C252.888 173.968 254.296 176.912 255.235 180.496C256.259 184.08 256.771 188.304 256.771 193.168V209.424C256.771 212.155 256.771 214.885 256.771 217.616C256.771 220.347 256.771 223.077 256.771 225.808C256.771 228.539 256.771 231.269 256.771 234H239.619C239.619 231.099 239.619 228.24 239.619 225.424C239.619 222.523 239.619 219.621 239.619 216.72H238.595C238.254 220.816 237.4 224.272 236.035 227.088C234.67 229.904 232.878 232.037 230.659 233.488C228.44 234.853 225.88 235.536 222.979 235.536ZM232.067 219.664C232.92 219.664 233.646 219.408 234.243 218.896C234.84 218.299 235.352 217.573 235.779 216.72C236.206 215.781 236.504 214.757 236.675 213.648C236.931 212.539 237.059 211.429 237.059 210.32V201.232L239.747 199.184C239.064 200.208 238.296 201.104 237.443 201.872C236.59 202.555 235.694 203.195 234.755 203.792C233.902 204.304 233.048 204.859 232.195 205.456C231.427 206.053 230.744 206.693 230.147 207.376C229.55 208.059 229.038 208.912 228.611 209.936C228.27 210.96 228.099 212.197 228.099 213.648C228.099 215.952 228.483 217.531 229.251 218.384C230.104 219.237 231.043 219.664 232.067 219.664ZM279.477 252.304C276.661 252.304 273.93 252.005 271.285 251.408C268.725 250.896 266.336 250.128 264.117 249.104C261.984 248.165 260.106 247.099 258.485 245.904L263.989 228.496C265.781 230.8 267.829 232.549 270.133 233.744C272.522 234.853 275.168 235.408 278.069 235.408C280.458 235.408 282.506 234.981 284.213 234.128C285.92 233.36 287.328 232.123 288.437 230.416C289.546 228.624 290.4 226.405 290.997 223.76C291.68 221.029 292.149 217.829 292.405 214.16L292.917 205.84H290.997C291.168 211.813 290.57 216.592 289.205 220.176C287.925 223.76 286.09 226.32 283.701 227.856C281.397 229.392 278.837 230.16 276.021 230.16C273.12 230.16 270.73 229.52 268.853 228.24C267.061 226.875 265.653 225.168 264.629 223.12C263.605 220.987 262.837 218.725 262.325 216.336C261.898 213.861 261.642 211.515 261.557 209.296C261.472 206.992 261.429 205.029 261.429 203.408V166.416H281.141V197.648C281.141 199.099 281.141 200.549 281.141 202C281.226 203.451 281.312 204.816 281.397 206.096C281.482 207.376 281.653 208.485 281.909 209.424C282.25 210.363 282.677 211.131 283.189 211.728C283.701 212.24 284.341 212.496 285.109 212.496C286.133 212.496 286.901 212.069 287.413 211.216C288.01 210.277 288.437 208.997 288.693 207.376C288.949 205.755 289.12 203.835 289.205 201.616C289.29 199.397 289.333 196.965 289.333 194.32V166.416H308.917V212.24C308.917 213.605 308.832 215.568 308.661 218.128C308.576 220.603 308.277 223.376 307.765 226.448C307.253 229.435 306.4 232.421 305.205 235.408C304.01 238.48 302.346 241.296 300.213 243.856C298.08 246.416 295.306 248.464 291.893 250C288.565 251.536 284.426 252.304 279.477 252.304ZM336.716 235.536C331.596 235.536 327.329 234.811 323.916 233.36C320.588 231.824 318.028 229.776 316.236 227.216C314.529 224.571 313.505 221.627 313.164 218.384C312.908 215.141 313.335 211.728 314.444 208.144L331.724 206.608C331.468 209.168 331.383 211.685 331.468 214.16C331.553 216.549 331.98 218.512 332.748 220.048C333.601 221.584 334.924 222.352 336.716 222.352C337.911 222.352 338.807 221.925 339.404 221.072C340.087 220.219 340.428 218.853 340.428 216.976C340.428 214.501 339.873 212.453 338.764 210.832C337.655 209.211 336.161 207.803 334.284 206.608C332.492 205.413 330.487 204.261 328.268 203.152C326.561 202.213 324.812 201.232 323.02 200.208C321.228 199.099 319.564 197.819 318.028 196.368C316.577 194.832 315.383 193.04 314.444 190.992C313.505 188.859 313.036 186.341 313.036 183.44C313.036 179.6 313.889 176.315 315.596 173.584C317.388 170.768 319.948 168.635 323.276 167.184C326.689 165.648 330.871 164.88 335.82 164.88C340.599 164.88 344.737 165.691 348.236 167.312C351.82 168.933 354.508 171.536 356.3 175.12C358.092 178.619 358.689 183.312 358.092 189.2L341.196 191.504C341.452 189.029 341.409 186.853 341.068 184.976C340.727 183.013 340.129 181.477 339.276 180.368C338.423 179.259 337.271 178.704 335.82 178.704C334.54 178.704 333.559 179.173 332.876 180.112C332.279 180.965 331.98 182.075 331.98 183.44C331.98 184.976 332.407 186.299 333.26 187.408C334.113 188.517 335.265 189.499 336.716 190.352C338.167 191.205 339.788 192.101 341.58 193.04C343.713 194.149 345.847 195.387 347.98 196.752C350.199 198.117 352.204 199.739 353.996 201.616C355.788 203.408 357.196 205.541 358.22 208.016C359.329 210.405 359.884 213.221 359.884 216.464C359.884 219.963 359.073 223.163 357.452 226.064C355.916 228.965 353.441 231.269 350.028 232.976C346.7 234.683 342.263 235.536 336.716 235.536Z" fill="black"/>
<path d="M11.408 36.384C10.16 36.384 9.04 36.208 8.048 35.856C7.088 35.472 6.256 34.896 5.552 34.128C4.88 33.36 4.368 32.4 4.016 31.248C3.664 30.096 3.488 28.752 3.488 27.216V16.368H2.096V11.472H2.72C3.744 11.472 4.432 11.216 4.784 10.704C5.136 10.16 5.376 9.344 5.504 8.256L5.792 5.904H10.688V10.656H14V16.512H10.688V25.68C10.688 26.896 10.864 27.808 11.216 28.416C11.6 29.024 12.096 29.328 12.704 29.328C12.96 29.328 13.184 29.28 13.376 29.184C13.6 29.088 13.808 28.944 14 28.752V36C13.584 36.128 13.168 36.224 12.752 36.288C12.336 36.352 11.888 36.384 11.408 36.384ZM15.4745 36V21.408V3.36H22.8665V7.584C22.8665 8.352 22.8185 9.296 22.7225 10.416C22.6585 11.504 22.5625 12.656 22.4345 13.872C22.3385 15.056 22.2265 16.192 22.0985 17.28C21.9705 18.368 21.8585 19.28 21.7625 20.016H22.1945C22.3865 17.488 22.7225 15.504 23.2025 14.064C23.7145 12.624 24.3545 11.6 25.1225 10.992C25.8905 10.384 26.8025 10.08 27.8585 10.08C28.9785 10.08 29.8745 10.352 30.5465 10.896C31.2505 11.44 31.7945 12.144 32.1785 13.008C32.5625 13.84 32.8345 14.752 32.9945 15.744C33.1865 16.736 33.2985 17.68 33.3305 18.576C33.3625 19.472 33.3785 20.24 33.3785 20.88V36H25.9865V22.656C25.9865 21.952 25.9705 21.28 25.9385 20.64C25.9385 19.968 25.8905 19.376 25.7945 18.864C25.6985 18.32 25.5385 17.888 25.3145 17.568C25.1225 17.248 24.8345 17.088 24.4505 17.088C23.9705 17.088 23.6185 17.376 23.3945 17.952C23.1705 18.528 23.0265 19.328 22.9625 20.352C22.8985 21.376 22.8665 22.56 22.8665 23.904V36H15.4745ZM44.33 36.576C42.474 36.576 40.938 36.272 39.722 35.664C38.506 35.056 37.546 34.192 36.842 33.072C36.138 31.952 35.642 30.608 35.354 29.04C35.066 27.472 34.922 25.744 34.922 23.856C34.922 22.064 35.05 20.352 35.306 18.72C35.594 17.088 36.074 15.616 36.746 14.304C37.418 12.992 38.346 11.968 39.53 11.232C40.714 10.464 42.234 10.08 44.09 10.08C45.786 10.08 47.21 10.4 48.362 11.04C49.514 11.68 50.41 12.608 51.05 13.824C51.722 15.04 52.154 16.512 52.346 18.24C52.538 19.936 52.49 21.84 52.202 23.952L39.818 24.432V20.976L45.962 20.736L45.29 23.136C45.45 21.408 45.514 20.016 45.482 18.96C45.45 17.872 45.322 17.088 45.098 16.608C44.874 16.096 44.538 15.84 44.09 15.84C43.61 15.84 43.242 16.128 42.986 16.704C42.73 17.248 42.554 18.048 42.458 19.104C42.362 20.128 42.314 21.36 42.314 22.8C42.314 25.808 42.474 27.952 42.794 29.232C43.114 30.48 43.626 31.104 44.33 31.104C44.714 31.104 45.018 30.928 45.242 30.576C45.466 30.224 45.61 29.792 45.674 29.28C45.77 28.736 45.802 28.16 45.77 27.552C45.77 26.944 45.738 26.384 45.674 25.872L52.442 26.496C52.666 27.616 52.714 28.768 52.586 29.952C52.49 31.136 52.154 32.24 51.578 33.264C51.002 34.256 50.122 35.056 48.938 35.664C47.786 36.272 46.25 36.576 44.33 36.576Z" fill="black"/>
<path d="M14.624 282.576C13.696 282.576 12.88 282.32 12.176 281.808C11.472 281.264 10.912 280.416 10.496 279.264C10.08 278.112 9.792 276.608 9.632 274.752H9.248V282H2.912V270.048V249.36H10.304V254.112C10.304 255.392 10.256 256.64 10.16 257.856C10.096 259.04 9.984 260.208 9.824 261.36C9.696 262.48 9.52 263.584 9.296 264.672H9.776C10 262.752 10.336 261.168 10.784 259.92C11.264 258.672 11.856 257.744 12.56 257.136C13.296 256.496 14.144 256.176 15.104 256.176C16.416 256.176 17.536 256.736 18.464 257.856C19.392 258.944 20.096 260.48 20.576 262.464C21.056 264.448 21.296 266.8 21.296 269.52C21.296 272.624 20.992 275.136 20.384 277.056C19.808 278.976 19.008 280.384 17.984 281.28C16.992 282.144 15.872 282.576 14.624 282.576ZM12.272 277.008C12.656 277.008 12.944 276.736 13.136 276.192C13.36 275.616 13.52 274.8 13.616 273.744C13.712 272.656 13.76 271.36 13.76 269.856C13.76 268.128 13.712 266.736 13.616 265.68C13.52 264.592 13.36 263.808 13.136 263.328C12.912 262.816 12.624 262.56 12.272 262.56C12.016 262.56 11.776 262.672 11.552 262.896C11.36 263.12 11.184 263.456 11.024 263.904C10.864 264.32 10.736 264.832 10.64 265.44C10.544 266.048 10.464 266.72 10.4 267.456C10.336 268.192 10.304 268.976 10.304 269.808V270.816C10.304 271.584 10.336 272.336 10.4 273.072C10.496 273.808 10.624 274.48 10.784 275.088C10.976 275.664 11.184 276.128 11.408 276.48C11.664 276.832 11.952 277.008 12.272 277.008ZM22.8808 282V249.36H30.1768V282H22.8808ZM40.7094 282.576C38.5654 282.576 36.8374 282.064 35.5254 281.04C34.2134 280.016 33.2534 278.528 32.6454 276.576C32.0694 274.624 31.7814 272.24 31.7814 269.424C31.7814 266.288 32.1174 263.744 32.7894 261.792C33.4614 259.808 34.4694 258.368 35.8134 257.472C37.1574 256.544 38.8214 256.08 40.8054 256.08C42.9814 256.08 44.7254 256.544 46.0374 257.472C47.3814 258.368 48.3574 259.776 48.9654 261.696C49.5734 263.616 49.8774 266.128 49.8774 269.232C49.8774 272.336 49.5414 274.88 48.8694 276.864C48.1974 278.816 47.1894 280.256 45.8454 281.184C44.5014 282.112 42.7894 282.576 40.7094 282.576ZM40.8054 277.248C41.0934 277.248 41.3334 277.12 41.5254 276.864C41.7494 276.608 41.9254 276.192 42.0534 275.616C42.1814 275.04 42.2614 274.272 42.2934 273.312C42.3574 272.352 42.3894 271.184 42.3894 269.808C42.3894 268.272 42.3574 266.976 42.2934 265.92C42.2614 264.832 42.1814 263.968 42.0534 263.328C41.9254 262.656 41.7494 262.176 41.5254 261.888C41.3334 261.6 41.0934 261.456 40.8054 261.456C40.5174 261.456 40.2614 261.6 40.0374 261.888C39.8454 262.176 39.6854 262.656 39.5574 263.328C39.4614 263.968 39.3814 264.832 39.3174 265.92C39.2854 267.008 39.2694 268.336 39.2694 269.904C39.2694 271.28 39.2854 272.432 39.3174 273.36C39.3814 274.288 39.4614 275.04 39.5574 275.616C39.6854 276.192 39.8454 276.608 40.0374 276.864C40.2614 277.12 40.5174 277.248 40.8054 277.248ZM58.8688 288.864C57.0128 288.864 55.4928 288.656 54.3088 288.24C53.1248 287.856 52.2448 287.296 51.6688 286.56C51.0928 285.824 50.8048 284.944 50.8048 283.92C50.8048 282.512 51.2848 281.424 52.2448 280.656C53.2368 279.888 54.5328 279.44 56.1328 279.312V278.928C55.0448 278.8 54.0528 278.576 53.1568 278.256C52.2608 277.936 51.8128 277.312 51.8128 276.384C51.8128 275.52 52.1968 274.832 52.9648 274.32C53.7648 273.776 54.8848 273.408 56.3248 273.216V272.784C54.6608 272.336 53.3328 271.456 52.3408 270.144C51.3808 268.832 50.9008 267.216 50.9008 265.296C50.9008 263.632 51.2688 262.16 52.0048 260.88C52.7728 259.568 53.8608 258.544 55.2688 257.808C56.6768 257.04 58.3568 256.656 60.3088 256.656H69.4288V262.56L63.1888 261.36V261.744C65.0128 262.16 66.3568 262.8 67.2208 263.664C68.0848 264.496 68.5168 265.536 68.5168 266.784C68.5168 267.904 68.1968 269.024 67.5568 270.144C66.9168 271.232 65.9568 272.144 64.6768 272.88C63.3968 273.584 61.8128 273.936 59.9248 273.936C59.6048 273.936 59.2368 273.936 58.8208 273.936C58.4048 273.904 58.0368 273.824 57.7168 273.696C57.2688 273.92 56.9168 274.112 56.6608 274.272C56.4048 274.432 56.2768 274.592 56.2768 274.752C56.2768 274.848 56.3408 274.944 56.4688 275.04C56.5968 275.104 56.7728 275.152 56.9968 275.184C57.2528 275.216 57.5408 275.232 57.8608 275.232H61.4608C62.2288 275.232 63.0928 275.264 64.0528 275.328C65.0448 275.392 65.9888 275.6 66.8848 275.952C67.7808 276.304 68.5168 276.88 69.0928 277.68C69.7008 278.448 70.0048 279.552 70.0048 280.992C70.0048 282.752 69.5248 284.208 68.5648 285.36C67.6368 286.544 66.3408 287.424 64.6768 288C63.0128 288.576 61.0768 288.864 58.8688 288.864ZM59.2528 282.192C60.3408 282.192 61.1568 282.128 61.7008 282C62.2768 281.904 62.6608 281.76 62.8528 281.568C63.0768 281.344 63.1888 281.088 63.1888 280.8C63.1888 280.416 63.0768 280.128 62.8528 279.936C62.6608 279.744 62.3888 279.6 62.0368 279.504C61.7168 279.408 61.3808 279.36 61.0288 279.36C60.6768 279.328 60.3728 279.312 60.1168 279.312H58.1968C57.3008 279.664 56.6768 279.968 56.3248 280.224C56.0048 280.48 55.8448 280.768 55.8448 281.088C55.8448 281.408 56.0208 281.648 56.3728 281.808C56.7568 281.968 57.2048 282.064 57.7168 282.096C58.2608 282.16 58.7728 282.192 59.2528 282.192ZM59.7808 269.616C60.2928 269.616 60.6768 269.28 60.9328 268.608C61.2208 267.936 61.3648 266.976 61.3648 265.728C61.3648 264.512 61.2368 263.536 60.9808 262.8C60.7248 262.032 60.3248 261.648 59.7808 261.648C59.2688 261.648 58.8848 262.016 58.6288 262.752C58.3728 263.456 58.2448 264.432 58.2448 265.68C58.2448 266.512 58.2928 267.232 58.3888 267.84C58.5168 268.416 58.6928 268.864 58.9168 269.184C59.1728 269.472 59.4608 269.616 59.7808 269.616Z" fill="black"/>
</svg>
