<svg width="361" height="287" viewBox="0 0 361 287" fill="none" xmlns="http://www.w3.org/2000/svg">
<path d="M2.432 131V43.96H21.888V131H2.432ZM39.729 132.536C36.9983 132.536 34.5663 131.896 32.433 130.616C30.385 129.336 28.7637 127.501 27.569 125.112C26.3743 122.723 25.777 119.864 25.777 116.536C25.777 112.696 26.4597 109.496 27.825 106.936C29.1903 104.376 30.9397 102.285 33.073 100.664C35.2063 98.9573 37.425 97.6347 39.729 96.696C42.1183 95.672 44.2517 94.8187 46.129 94.136C48.2623 93.368 49.8837 92.6 50.993 91.832C52.1877 91.064 52.9983 90.1253 53.425 89.016C53.8517 87.9067 54.065 86.4987 54.065 84.792C54.065 82.9147 53.8517 81.464 53.425 80.44C53.0837 79.3307 52.6143 78.52 52.017 78.008C51.4197 77.496 50.7797 77.24 50.097 77.24C49.329 77.24 48.561 77.624 47.793 78.392C47.025 79.0747 46.4703 80.4827 46.129 82.616C45.7877 84.664 45.8303 87.7787 46.257 91.96L27.057 89.912C26.801 84.1093 27.3557 79.3733 28.721 75.704C30.0863 72.0347 31.9637 69.2187 34.353 67.256C36.7423 65.208 39.3877 63.8 42.289 63.032C45.1903 62.264 48.049 61.88 50.865 61.88C54.6197 61.88 57.905 62.4347 60.721 63.544C63.537 64.6533 65.8837 66.36 67.761 68.664C69.6383 70.968 71.0463 73.912 71.985 77.496C73.009 81.08 73.521 85.304 73.521 90.168V106.424C73.521 109.155 73.521 111.885 73.521 114.616C73.521 117.347 73.521 120.077 73.521 122.808C73.521 125.539 73.521 128.269 73.521 131H56.369C56.369 128.099 56.369 125.24 56.369 122.424C56.369 119.523 56.369 116.621 56.369 113.72H55.345C55.0037 117.816 54.1503 121.272 52.785 124.088C51.4197 126.904 49.6277 129.037 47.409 130.488C45.1903 131.853 42.6303 132.536 39.729 132.536ZM48.817 116.664C49.6703 116.664 50.3957 116.408 50.993 115.896C51.5903 115.299 52.1023 114.573 52.529 113.72C52.9557 112.781 53.2543 111.757 53.425 110.648C53.681 109.539 53.809 108.429 53.809 107.32V98.232L56.497 96.184C55.8143 97.208 55.0463 98.104 54.193 98.872C53.3397 99.5547 52.4437 100.195 51.505 100.792C50.6517 101.304 49.7983 101.859 48.945 102.456C48.177 103.053 47.4943 103.693 46.897 104.376C46.2997 105.059 45.7877 105.912 45.361 106.936C45.0197 107.96 44.849 109.197 44.849 110.648C44.849 112.952 45.233 114.531 46.001 115.384C46.8543 116.237 47.793 116.664 48.817 116.664ZM77.283 131V115.384L99.683 79.16V78.776H77.795V63.416H120.163V79.288L97.891 115.384V115.64H119.651V131H77.283ZM141.977 149.304C139.161 149.304 136.43 149.005 133.785 148.408C131.225 147.896 128.836 147.128 126.617 146.104C124.484 145.165 122.606 144.099 120.985 142.904L126.489 125.496C128.281 127.8 130.329 129.549 132.633 130.744C135.022 131.853 137.668 132.408 140.569 132.408C142.958 132.408 145.006 131.981 146.713 131.128C148.42 130.36 149.828 129.123 150.937 127.416C152.046 125.624 152.9 123.405 153.497 120.76C154.18 118.029 154.649 114.829 154.905 111.16L155.417 102.84H153.497C153.668 108.813 153.07 113.592 151.705 117.176C150.425 120.76 148.59 123.32 146.201 124.856C143.897 126.392 141.337 127.16 138.521 127.16C135.62 127.16 133.23 126.52 131.353 125.24C129.561 123.875 128.153 122.168 127.129 120.12C126.105 117.987 125.337 115.725 124.825 113.336C124.398 110.861 124.142 108.515 124.057 106.296C123.972 103.992 123.929 102.029 123.929 100.408V63.416H143.641V94.648C143.641 96.0987 143.641 97.5493 143.641 99C143.726 100.451 143.812 101.816 143.897 103.096C143.982 104.376 144.153 105.485 144.409 106.424C144.75 107.363 145.177 108.131 145.689 108.728C146.201 109.24 146.841 109.496 147.609 109.496C148.633 109.496 149.401 109.069 149.913 108.216C150.51 107.277 150.937 105.997 151.193 104.376C151.449 102.755 151.62 100.835 151.705 98.616C151.79 96.3973 151.833 93.9653 151.833 91.32V63.416H171.417V109.24C171.417 110.605 171.332 112.568 171.161 115.128C171.076 117.603 170.777 120.376 170.265 123.448C169.753 126.435 168.9 129.421 167.705 132.408C166.51 135.48 164.846 138.296 162.713 140.856C160.58 143.416 157.806 145.464 154.393 147C151.065 148.536 146.926 149.304 141.977 149.304ZM25.216 232.536C20.096 232.536 15.8293 231.811 12.416 230.36C9.088 228.824 6.528 226.776 4.736 224.216C3.02933 221.571 2.00533 218.627 1.664 215.384C1.408 212.141 1.83467 208.728 2.944 205.144L20.224 203.608C19.968 206.168 19.8827 208.685 19.968 211.16C20.0533 213.549 20.48 215.512 21.248 217.048C22.1013 218.584 23.424 219.352 25.216 219.352C26.4107 219.352 27.3067 218.925 27.904 218.072C28.5867 217.219 28.928 215.853 28.928 213.976C28.928 211.501 28.3733 209.453 27.264 207.832C26.1547 206.211 24.6613 204.803 22.784 203.608C20.992 202.413 18.9867 201.261 16.768 200.152C15.0613 199.213 13.312 198.232 11.52 197.208C9.728 196.099 8.064 194.819 6.528 193.368C5.07733 191.832 3.88267 190.04 2.944 187.992C2.00533 185.859 1.536 183.341 1.536 180.44C1.536 176.6 2.38933 173.315 4.096 170.584C5.888 167.768 8.448 165.635 11.776 164.184C15.1893 162.648 19.3707 161.88 24.32 161.88C29.0987 161.88 33.2373 162.691 36.736 164.312C40.32 165.933 43.008 168.536 44.8 172.12C46.592 175.619 47.1893 180.312 46.592 186.2L29.696 188.504C29.952 186.029 29.9093 183.853 29.568 181.976C29.2267 180.013 28.6293 178.477 27.776 177.368C26.9227 176.259 25.7707 175.704 24.32 175.704C23.04 175.704 22.0587 176.173 21.376 177.112C20.7787 177.965 20.48 179.075 20.48 180.44C20.48 181.976 20.9067 183.299 21.76 184.408C22.6133 185.517 23.7653 186.499 25.216 187.352C26.6667 188.205 28.288 189.101 30.08 190.04C32.2133 191.149 34.3467 192.387 36.48 193.752C38.6987 195.117 40.704 196.739 42.496 198.616C44.288 200.408 45.696 202.541 46.72 205.016C47.8293 207.405 48.384 210.221 48.384 213.464C48.384 216.963 47.5733 220.163 45.952 223.064C44.416 225.965 41.9413 228.269 38.528 229.976C35.2 231.683 30.7627 232.536 25.216 232.536ZM66.399 232.536C63.4977 232.536 61.1083 231.853 59.231 230.488C57.3537 229.123 55.903 227.373 54.879 225.24C53.855 223.021 53.087 220.675 52.575 218.2C52.1483 215.64 51.8923 213.208 51.807 210.904C51.7217 208.515 51.679 206.509 51.679 204.888V163.416H71.519V199.128C71.519 201.005 71.519 202.84 71.519 204.632C71.6043 206.339 71.775 207.917 72.031 209.368C72.287 210.733 72.671 211.843 73.183 212.696C73.695 213.464 74.463 213.848 75.487 213.848C76.511 213.848 77.279 213.421 77.791 212.568C78.3883 211.629 78.815 210.392 79.071 208.856C79.327 207.235 79.455 205.315 79.455 203.096C79.5403 200.792 79.583 198.317 79.583 195.672V163.416H99.295V199.896V231H82.399V206.296H81.375C81.375 213.037 80.6923 218.328 79.327 222.168C78.047 225.923 76.255 228.611 73.951 230.232C71.7323 231.768 69.215 232.536 66.399 232.536ZM104.182 231V189.656V163.416H121.078V187.096H122.102C122.102 180.867 122.699 175.917 123.894 172.248C125.089 168.579 126.795 165.933 129.014 164.312C131.233 162.691 133.878 161.88 136.95 161.88C139.083 161.88 140.961 162.264 142.582 163.032C144.289 163.715 145.739 164.781 146.934 166.232C148.129 167.683 149.11 169.475 149.878 171.608C150.646 173.741 151.201 176.259 151.542 179.16C151.883 181.976 152.054 185.133 152.054 188.632V231H132.214V195.416C132.214 193.624 132.171 191.875 132.086 190.168C132.086 188.376 131.958 186.755 131.702 185.304C131.446 183.853 131.062 182.701 130.55 181.848C130.038 180.995 129.27 180.568 128.246 180.568C126.795 180.568 125.771 181.507 125.174 183.384C124.577 185.261 124.193 187.651 124.022 190.552C123.937 193.453 123.894 196.525 123.894 199.768V231H104.182ZM174.215 232.536C170.29 232.536 166.962 231.128 164.231 228.312C161.586 225.496 159.58 221.443 158.215 216.152C156.85 210.861 156.167 204.589 156.167 197.336C156.167 189.229 156.935 182.573 158.471 177.368C160.007 172.163 162.012 168.323 164.487 165.848C167.047 163.373 169.863 162.136 172.935 162.136C175.666 162.136 177.927 163.032 179.719 164.824C181.596 166.616 183.09 169.219 184.199 172.632C185.394 175.96 186.29 180.013 186.887 184.792H188.167C187.655 181.891 187.186 179.075 186.759 176.344C186.418 173.613 186.119 171.053 185.863 168.664C185.607 166.189 185.479 163.928 185.479 161.88V143.96H205.191V199.256V231H188.295V211.672H187.271C186.844 216.963 186.034 221.144 184.839 224.216C183.73 227.288 182.279 229.464 180.487 230.744C178.695 231.939 176.604 232.536 174.215 232.536ZM180.359 217.688C181.212 217.688 181.938 217.219 182.535 216.28C183.218 215.341 183.772 214.104 184.199 212.568C184.626 210.947 184.924 209.155 185.095 207.192C185.351 205.229 185.479 203.224 185.479 201.176V198.488C185.479 196.269 185.394 194.179 185.223 192.216C185.052 190.253 184.796 188.461 184.455 186.84C184.199 185.219 183.858 183.853 183.431 182.744C183.004 181.549 182.535 180.653 182.023 180.056C181.511 179.459 180.914 179.16 180.231 179.16C179.378 179.16 178.652 179.843 178.055 181.208C177.458 182.488 176.988 184.579 176.647 187.48C176.391 190.296 176.263 193.965 176.263 198.488C176.263 202.499 176.391 205.955 176.647 208.856C176.903 211.757 177.33 213.976 177.927 215.512C178.524 216.963 179.335 217.688 180.359 217.688ZM222.979 232.536C220.248 232.536 217.816 231.896 215.683 230.616C213.635 229.336 212.014 227.501 210.819 225.112C209.624 222.723 209.027 219.864 209.027 216.536C209.027 212.696 209.71 209.496 211.075 206.936C212.44 204.376 214.19 202.285 216.323 200.664C218.456 198.957 220.675 197.635 222.979 196.696C225.368 195.672 227.502 194.819 229.379 194.136C231.512 193.368 233.134 192.6 234.243 191.832C235.438 191.064 236.248 190.125 236.675 189.016C237.102 187.907 237.315 186.499 237.315 184.792C237.315 182.915 237.102 181.464 236.675 180.44C236.334 179.331 235.864 178.52 235.267 178.008C234.67 177.496 234.03 177.24 233.347 177.24C232.579 177.24 231.811 177.624 231.043 178.392C230.275 179.075 229.72 180.483 229.379 182.616C229.038 184.664 229.08 187.779 229.507 191.96L210.307 189.912C210.051 184.109 210.606 179.373 211.971 175.704C213.336 172.035 215.214 169.219 217.603 167.256C219.992 165.208 222.638 163.8 225.539 163.032C228.44 162.264 231.299 161.88 234.115 161.88C237.87 161.88 241.155 162.435 243.971 163.544C246.787 164.653 249.134 166.36 251.011 168.664C252.888 170.968 254.296 173.912 255.235 177.496C256.259 181.08 256.771 185.304 256.771 190.168V206.424C256.771 209.155 256.771 211.885 256.771 214.616C256.771 217.347 256.771 220.077 256.771 222.808C256.771 225.539 256.771 228.269 256.771 231H239.619C239.619 228.099 239.619 225.24 239.619 222.424C239.619 219.523 239.619 216.621 239.619 213.72H238.595C238.254 217.816 237.4 221.272 236.035 224.088C234.67 226.904 232.878 229.037 230.659 230.488C228.44 231.853 225.88 232.536 222.979 232.536ZM232.067 216.664C232.92 216.664 233.646 216.408 234.243 215.896C234.84 215.299 235.352 214.573 235.779 213.72C236.206 212.781 236.504 211.757 236.675 210.648C236.931 209.539 237.059 208.429 237.059 207.32V198.232L239.747 196.184C239.064 197.208 238.296 198.104 237.443 198.872C236.59 199.555 235.694 200.195 234.755 200.792C233.902 201.304 233.048 201.859 232.195 202.456C231.427 203.053 230.744 203.693 230.147 204.376C229.55 205.059 229.038 205.912 228.611 206.936C228.27 207.96 228.099 209.197 228.099 210.648C228.099 212.952 228.483 214.531 229.251 215.384C230.104 216.237 231.043 216.664 232.067 216.664ZM279.477 249.304C276.661 249.304 273.93 249.005 271.285 248.408C268.725 247.896 266.336 247.128 264.117 246.104C261.984 245.165 260.106 244.099 258.485 242.904L263.989 225.496C265.781 227.8 267.829 229.549 270.133 230.744C272.522 231.853 275.168 232.408 278.069 232.408C280.458 232.408 282.506 231.981 284.213 231.128C285.92 230.36 287.328 229.123 288.437 227.416C289.546 225.624 290.4 223.405 290.997 220.76C291.68 218.029 292.149 214.829 292.405 211.16L292.917 202.84H290.997C291.168 208.813 290.57 213.592 289.205 217.176C287.925 220.76 286.09 223.32 283.701 224.856C281.397 226.392 278.837 227.16 276.021 227.16C273.12 227.16 270.73 226.52 268.853 225.24C267.061 223.875 265.653 222.168 264.629 220.12C263.605 217.987 262.837 215.725 262.325 213.336C261.898 210.861 261.642 208.515 261.557 206.296C261.472 203.992 261.429 202.029 261.429 200.408V163.416H281.141V194.648C281.141 196.099 281.141 197.549 281.141 199C281.226 200.451 281.312 201.816 281.397 203.096C281.482 204.376 281.653 205.485 281.909 206.424C282.25 207.363 282.677 208.131 283.189 208.728C283.701 209.24 284.341 209.496 285.109 209.496C286.133 209.496 286.901 209.069 287.413 208.216C288.01 207.277 288.437 205.997 288.693 204.376C288.949 202.755 289.12 200.835 289.205 198.616C289.29 196.397 289.333 193.965 289.333 191.32V163.416H308.917V209.24C308.917 210.605 308.832 212.568 308.661 215.128C308.576 217.603 308.277 220.376 307.765 223.448C307.253 226.435 306.4 229.421 305.205 232.408C304.01 235.48 302.346 238.296 300.213 240.856C298.08 243.416 295.306 245.464 291.893 247C288.565 248.536 284.426 249.304 279.477 249.304ZM336.716 232.536C331.596 232.536 327.329 231.811 323.916 230.36C320.588 228.824 318.028 226.776 316.236 224.216C314.529 221.571 313.505 218.627 313.164 215.384C312.908 212.141 313.335 208.728 314.444 205.144L331.724 203.608C331.468 206.168 331.383 208.685 331.468 211.16C331.553 213.549 331.98 215.512 332.748 217.048C333.601 218.584 334.924 219.352 336.716 219.352C337.911 219.352 338.807 218.925 339.404 218.072C340.087 217.219 340.428 215.853 340.428 213.976C340.428 211.501 339.873 209.453 338.764 207.832C337.655 206.211 336.161 204.803 334.284 203.608C332.492 202.413 330.487 201.261 328.268 200.152C326.561 199.213 324.812 198.232 323.02 197.208C321.228 196.099 319.564 194.819 318.028 193.368C316.577 191.832 315.383 190.04 314.444 187.992C313.505 185.859 313.036 183.341 313.036 180.44C313.036 176.6 313.889 173.315 315.596 170.584C317.388 167.768 319.948 165.635 323.276 164.184C326.689 162.648 330.871 161.88 335.82 161.88C340.599 161.88 344.737 162.691 348.236 164.312C351.82 165.933 354.508 168.536 356.3 172.12C358.092 175.619 358.689 180.312 358.092 186.2L341.196 188.504C341.452 186.029 341.409 183.853 341.068 181.976C340.727 180.013 340.129 178.477 339.276 177.368C338.423 176.259 337.271 175.704 335.82 175.704C334.54 175.704 333.559 176.173 332.876 177.112C332.279 177.965 331.98 179.075 331.98 180.44C331.98 181.976 332.407 183.299 333.26 184.408C334.113 185.517 335.265 186.499 336.716 187.352C338.167 188.205 339.788 189.101 341.58 190.04C343.713 191.149 345.847 192.387 347.98 193.752C350.199 195.117 352.204 196.739 353.996 198.616C355.788 200.408 357.196 202.541 358.22 205.016C359.329 207.405 359.884 210.221 359.884 213.464C359.884 216.963 359.073 220.163 357.452 223.064C355.916 225.965 353.441 228.269 350.028 229.976C346.7 231.683 342.263 232.536 336.716 232.536Z" fill="black"/>
<path d="M11.408 33.384C10.16 33.384 9.04 33.208 8.048 32.856C7.088 32.472 6.256 31.896 5.552 31.128C4.88 30.36 4.368 29.4 4.016 28.248C3.664 27.096 3.488 25.752 3.488 24.216V13.368H2.096V8.472H2.72C3.744 8.472 4.432 8.216 4.784 7.704C5.136 7.16 5.376 6.344 5.504 5.256L5.792 2.904H10.688V7.656H14V13.512H10.688V22.68C10.688 23.896 10.864 24.808 11.216 25.416C11.6 26.024 12.096 26.328 12.704 26.328C12.96 26.328 13.184 26.28 13.376 26.184C13.6 26.088 13.808 25.944 14 25.752V33C13.584 33.128 13.168 33.224 12.752 33.288C12.336 33.352 11.888 33.384 11.408 33.384ZM15.4745 33V18.408V0.36H22.8665V4.584C22.8665 5.352 22.8185 6.296 22.7225 7.416C22.6585 8.504 22.5625 9.656 22.4345 10.872C22.3385 12.056 22.2265 13.192 22.0985 14.28C21.9705 15.368 21.8585 16.28 21.7625 17.016H22.1945C22.3865 14.488 22.7225 12.504 23.2025 11.064C23.7145 9.624 24.3545 8.6 25.1225 7.992C25.8905 7.384 26.8025 7.08 27.8585 7.08C28.9785 7.08 29.8745 7.352 30.5465 7.896C31.2505 8.44 31.7945 9.144 32.1785 10.008C32.5625 10.84 32.8345 11.752 32.9945 12.744C33.1865 13.736 33.2985 14.68 33.3305 15.576C33.3625 16.472 33.3785 17.24 33.3785 17.88V33H25.9865V19.656C25.9865 18.952 25.9705 18.28 25.9385 17.64C25.9385 16.968 25.8905 16.376 25.7945 15.864C25.6985 15.32 25.5385 14.888 25.3145 14.568C25.1225 14.248 24.8345 14.088 24.4505 14.088C23.9705 14.088 23.6185 14.376 23.3945 14.952C23.1705 15.528 23.0265 16.328 22.9625 17.352C22.8985 18.376 22.8665 19.56 22.8665 20.904V33H15.4745ZM44.33 33.576C42.474 33.576 40.938 33.272 39.722 32.664C38.506 32.056 37.546 31.192 36.842 30.072C36.138 28.952 35.642 27.608 35.354 26.04C35.066 24.472 34.922 22.744 34.922 20.856C34.922 19.064 35.05 17.352 35.306 15.72C35.594 14.088 36.074 12.616 36.746 11.304C37.418 9.992 38.346 8.968 39.53 8.232C40.714 7.464 42.234 7.08 44.09 7.08C45.786 7.08 47.21 7.4 48.362 8.04C49.514 8.68 50.41 9.608 51.05 10.824C51.722 12.04 52.154 13.512 52.346 15.24C52.538 16.936 52.49 18.84 52.202 20.952L39.818 21.432V17.976L45.962 17.736L45.29 20.136C45.45 18.408 45.514 17.016 45.482 15.96C45.45 14.872 45.322 14.088 45.098 13.608C44.874 13.096 44.538 12.84 44.09 12.84C43.61 12.84 43.242 13.128 42.986 13.704C42.73 14.248 42.554 15.048 42.458 16.104C42.362 17.128 42.314 18.36 42.314 19.8C42.314 22.808 42.474 24.952 42.794 26.232C43.114 27.48 43.626 28.104 44.33 28.104C44.714 28.104 45.018 27.928 45.242 27.576C45.466 27.224 45.61 26.792 45.674 26.28C45.77 25.736 45.802 25.16 45.77 24.552C45.77 23.944 45.738 23.384 45.674 22.872L52.442 23.496C52.666 24.616 52.714 25.768 52.586 26.952C52.49 28.136 52.154 29.24 51.578 30.264C51.002 31.256 50.122 32.056 48.938 32.664C47.786 33.272 46.25 33.576 44.33 33.576Z" fill="black"/>
<path d="M14.624 279.576C13.696 279.576 12.88 279.32 12.176 278.808C11.472 278.264 10.912 277.416 10.496 276.264C10.08 275.112 9.792 273.608 9.632 271.752H9.248V279H2.912V267.048V246.36H10.304V251.112C10.304 252.392 10.256 253.64 10.16 254.856C10.096 256.04 9.984 257.208 9.824 258.36C9.696 259.48 9.52 260.584 9.296 261.672H9.776C10 259.752 10.336 258.168 10.784 256.92C11.264 255.672 11.856 254.744 12.56 254.136C13.296 253.496 14.144 253.176 15.104 253.176C16.416 253.176 17.536 253.736 18.464 254.856C19.392 255.944 20.096 257.48 20.576 259.464C21.056 261.448 21.296 263.8 21.296 266.52C21.296 269.624 20.992 272.136 20.384 274.056C19.808 275.976 19.008 277.384 17.984 278.28C16.992 279.144 15.872 279.576 14.624 279.576ZM12.272 274.008C12.656 274.008 12.944 273.736 13.136 273.192C13.36 272.616 13.52 271.8 13.616 270.744C13.712 269.656 13.76 268.36 13.76 266.856C13.76 265.128 13.712 263.736 13.616 262.68C13.52 261.592 13.36 260.808 13.136 260.328C12.912 259.816 12.624 259.56 12.272 259.56C12.016 259.56 11.776 259.672 11.552 259.896C11.36 260.12 11.184 260.456 11.024 260.904C10.864 261.32 10.736 261.832 10.64 262.44C10.544 263.048 10.464 263.72 10.4 264.456C10.336 265.192 10.304 265.976 10.304 266.808V267.816C10.304 268.584 10.336 269.336 10.4 270.072C10.496 270.808 10.624 271.48 10.784 272.088C10.976 272.664 11.184 273.128 11.408 273.48C11.664 273.832 11.952 274.008 12.272 274.008ZM22.8808 279V246.36H30.1768V279H22.8808ZM40.7094 279.576C38.5654 279.576 36.8374 279.064 35.5254 278.04C34.2134 277.016 33.2534 275.528 32.6454 273.576C32.0694 271.624 31.7814 269.24 31.7814 266.424C31.7814 263.288 32.1174 260.744 32.7894 258.792C33.4614 256.808 34.4694 255.368 35.8134 254.472C37.1574 253.544 38.8214 253.08 40.8054 253.08C42.9814 253.08 44.7254 253.544 46.0374 254.472C47.3814 255.368 48.3574 256.776 48.9654 258.696C49.5734 260.616 49.8774 263.128 49.8774 266.232C49.8774 269.336 49.5414 271.88 48.8694 273.864C48.1974 275.816 47.1894 277.256 45.8454 278.184C44.5014 279.112 42.7894 279.576 40.7094 279.576ZM40.8054 274.248C41.0934 274.248 41.3334 274.12 41.5254 273.864C41.7494 273.608 41.9254 273.192 42.0534 272.616C42.1814 272.04 42.2614 271.272 42.2934 270.312C42.3574 269.352 42.3894 268.184 42.3894 266.808C42.3894 265.272 42.3574 263.976 42.2934 262.92C42.2614 261.832 42.1814 260.968 42.0534 260.328C41.9254 259.656 41.7494 259.176 41.5254 258.888C41.3334 258.6 41.0934 258.456 40.8054 258.456C40.5174 258.456 40.2614 258.6 40.0374 258.888C39.8454 259.176 39.6854 259.656 39.5574 260.328C39.4614 260.968 39.3814 261.832 39.3174 262.92C39.2854 264.008 39.2694 265.336 39.2694 266.904C39.2694 268.28 39.2854 269.432 39.3174 270.36C39.3814 271.288 39.4614 272.04 39.5574 272.616C39.6854 273.192 39.8454 273.608 40.0374 273.864C40.2614 274.12 40.5174 274.248 40.8054 274.248ZM58.8688 285.864C57.0128 285.864 55.4928 285.656 54.3088 285.24C53.1248 284.856 52.2448 284.296 51.6688 283.56C51.0928 282.824 50.8048 281.944 50.8048 280.92C50.8048 279.512 51.2848 278.424 52.2448 277.656C53.2368 276.888 54.5328 276.44 56.1328 276.312V275.928C55.0448 275.8 54.0528 275.576 53.1568 275.256C52.2608 274.936 51.8128 274.312 51.8128 273.384C51.8128 272.52 52.1968 271.832 52.9648 271.32C53.7648 270.776 54.8848 270.408 56.3248 270.216V269.784C54.6608 269.336 53.3328 268.456 52.3408 267.144C51.3808 265.832 50.9008 264.216 50.9008 262.296C50.9008 260.632 51.2688 259.16 52.0048 257.88C52.7728 256.568 53.8608 255.544 55.2688 254.808C56.6768 254.04 58.3568 253.656 60.3088 253.656H69.4288V259.56L63.1888 258.36V258.744C65.0128 259.16 66.3568 259.8 67.2208 260.664C68.0848 261.496 68.5168 262.536 68.5168 263.784C68.5168 264.904 68.1968 266.024 67.5568 267.144C66.9168 268.232 65.9568 269.144 64.6768 269.88C63.3968 270.584 61.8128 270.936 59.9248 270.936C59.6048 270.936 59.2368 270.936 58.8208 270.936C58.4048 270.904 58.0368 270.824 57.7168 270.696C57.2688 270.92 56.9168 271.112 56.6608 271.272C56.4048 271.432 56.2768 271.592 56.2768 271.752C56.2768 271.848 56.3408 271.944 56.4688 272.04C56.5968 272.104 56.7728 272.152 56.9968 272.184C57.2528 272.216 57.5408 272.232 57.8608 272.232H61.4608C62.2288 272.232 63.0928 272.264 64.0528 272.328C65.0448 272.392 65.9888 272.6 66.8848 272.952C67.7808 273.304 68.5168 273.88 69.0928 274.68C69.7008 275.448 70.0048 276.552 70.0048 277.992C70.0048 279.752 69.5248 281.208 68.5648 282.36C67.6368 283.544 66.3408 284.424 64.6768 285C63.0128 285.576 61.0768 285.864 58.8688 285.864ZM59.2528 279.192C60.3408 279.192 61.1568 279.128 61.7008 279C62.2768 278.904 62.6608 278.76 62.8528 278.568C63.0768 278.344 63.1888 278.088 63.1888 277.8C63.1888 277.416 63.0768 277.128 62.8528 276.936C62.6608 276.744 62.3888 276.6 62.0368 276.504C61.7168 276.408 61.3808 276.36 61.0288 276.36C60.6768 276.328 60.3728 276.312 60.1168 276.312H58.1968C57.3008 276.664 56.6768 276.968 56.3248 277.224C56.0048 277.48 55.8448 277.768 55.8448 278.088C55.8448 278.408 56.0208 278.648 56.3728 278.808C56.7568 278.968 57.2048 279.064 57.7168 279.096C58.2608 279.16 58.7728 279.192 59.2528 279.192ZM59.7808 266.616C60.2928 266.616 60.6768 266.28 60.9328 265.608C61.2208 264.936 61.3648 263.976 61.3648 262.728C61.3648 261.512 61.2368 260.536 60.9808 259.8C60.7248 259.032 60.3248 258.648 59.7808 258.648C59.2688 258.648 58.8848 259.016 58.6288 259.752C58.3728 260.456 58.2448 261.432 58.2448 262.68C58.2448 263.512 58.2928 264.232 58.3888 264.84C58.5168 265.416 58.6928 265.864 58.9168 266.184C59.1728 266.472 59.4608 266.616 59.7808 266.616Z" fill="black"/>
</svg>
