<svg width="360" height="200" viewBox="0 0 360 200" fill="none" xmlns="http://www.w3.org/2000/svg">
<rect width="360" height="200" fill="#D9D9D9"/>
<path d="M46.912 83V31.88H49.432V80.696H80.752V83H46.912ZM84.4296 72.272C84.4296 70.064 85.1016 68.168 86.4456 66.584C87.7896 64.952 89.6136 63.68 91.9176 62.768C94.2216 61.808 96.9096 61.328 99.9816 61.328C101.998 61.328 104.086 61.52 106.246 61.904C108.406 62.24 110.35 62.72 112.078 63.344V59.384C112.078 55.736 110.998 52.808 108.838 50.6C106.726 48.344 103.87 47.216 100.27 47.216C98.4456 47.216 96.5016 47.6 94.4376 48.368C92.4216 49.136 90.3576 50.264 88.2456 51.752L87.0216 49.952C89.4696 48.272 91.7976 47.024 94.0056 46.208C96.2136 45.392 98.3496 44.984 100.414 44.984C104.734 44.984 108.166 46.304 110.71 48.944C113.254 51.536 114.526 55.064 114.526 59.528V79.256C114.526 79.784 114.622 80.192 114.814 80.48C115.054 80.72 115.39 80.84 115.822 80.84V83C115.486 83 115.198 83 114.958 83C114.766 83 114.598 82.976 114.454 82.928C113.782 82.784 113.254 82.424 112.87 81.848C112.486 81.272 112.27 80.648 112.222 79.976V76.736C110.494 78.944 108.262 80.672 105.526 81.92C102.79 83.12 99.8616 83.72 96.7416 83.72C94.4376 83.72 92.3496 83.216 90.4776 82.208C88.6056 81.2 87.1176 79.832 86.0136 78.104C84.9576 76.328 84.4296 74.384 84.4296 72.272ZM110.782 75.512C111.214 74.936 111.526 74.384 111.718 73.856C111.958 73.28 112.078 72.776 112.078 72.344V65.504C110.206 64.784 108.262 64.256 106.246 63.92C104.278 63.536 102.238 63.344 100.126 63.344C96.1416 63.344 92.9256 64.16 90.4776 65.792C88.0296 67.376 86.8056 69.488 86.8056 72.128C86.8056 73.856 87.2376 75.44 88.1016 76.88C89.0136 78.32 90.2376 79.472 91.7736 80.336C93.3576 81.2 95.1096 81.632 97.0296 81.632C100.006 81.632 102.718 81.08 105.166 79.976C107.662 78.824 109.534 77.336 110.782 75.512ZM122.249 80.984L149.825 47.648H122.681V45.56H152.705V47.576L125.273 80.912H152.489V83H122.249V80.984ZM163.884 96.68C164.652 96.728 165.348 96.728 165.972 96.68C166.596 96.632 167.028 96.464 167.268 96.176C167.556 95.984 167.892 95.552 168.276 94.88C168.708 94.256 169.308 93.008 170.076 91.136C170.892 89.312 172.068 86.6 173.604 83L156.54 45.56H159.204L174.9 80.264L189.66 45.56H192.18L170.796 95.672C170.556 96.248 170.244 96.752 169.86 97.184C169.476 97.664 169.044 98.024 168.564 98.264C168.132 98.552 167.556 98.72 166.836 98.768C166.404 98.864 165.948 98.936 165.468 98.984C164.988 99.032 164.46 99.032 163.884 98.984V96.68ZM76.576 124.44C75.616 123.432 74.632 122.568 73.624 121.848C72.616 121.128 71.536 120.552 70.384 120.12C69.232 119.688 68.008 119.376 66.712 119.184C65.416 118.944 64 118.824 62.464 118.824C57.04 118.824 53.104 119.856 50.656 121.92C48.208 123.984 46.984 126.744 46.984 130.2C46.984 132.552 47.512 134.4 48.568 135.744C49.624 137.088 51.304 138.168 53.608 138.984C55.912 139.752 58.888 140.52 62.536 141.288C66.28 142.056 69.52 142.944 72.256 143.952C74.992 144.96 77.104 146.328 78.592 148.056C80.08 149.784 80.824 152.16 80.824 155.184C80.824 157.344 80.392 159.264 79.528 160.944C78.712 162.576 77.512 163.944 75.928 165.048C74.344 166.152 72.424 166.992 70.168 167.568C67.96 168.096 65.488 168.36 62.752 168.36C60.016 168.36 57.472 168.096 55.12 167.568C52.768 166.992 50.56 166.128 48.496 164.976C46.432 163.824 44.488 162.36 42.664 160.584L44.176 158.712C45.328 159.96 46.576 161.064 47.92 162.024C49.312 162.936 50.776 163.704 52.312 164.328C53.896 164.952 55.552 165.432 57.28 165.768C59.056 166.056 60.904 166.2 62.824 166.2C67.624 166.2 71.392 165.312 74.128 163.536C76.912 161.712 78.304 159.048 78.304 155.544C78.304 153.096 77.704 151.152 76.504 149.712C75.304 148.224 73.48 147.024 71.032 146.112C68.584 145.152 65.464 144.288 61.672 143.52C57.976 142.752 54.832 141.912 52.24 141C49.696 140.088 47.752 138.816 46.408 137.184C45.112 135.552 44.464 133.344 44.464 130.56C44.464 127.536 45.208 124.992 46.696 122.928C48.184 120.816 50.272 119.232 52.96 118.176C55.648 117.072 58.792 116.52 62.392 116.52C64.6 116.52 66.616 116.736 68.44 117.168C70.264 117.6 71.944 118.248 73.48 119.112C75.064 119.976 76.552 121.128 77.944 122.568L76.576 124.44ZM88.8548 151.872V130.56H91.3028V151.584C91.3028 156.576 92.1188 160.296 93.7508 162.744C95.4308 165.192 97.9508 166.416 101.311 166.416C103.567 166.416 105.727 165.912 107.791 164.904C109.903 163.896 111.751 162.48 113.335 160.656C114.919 158.784 116.071 156.672 116.791 154.32V130.56H119.239V164.256C119.239 164.736 119.359 165.12 119.599 165.408C119.839 165.696 120.151 165.84 120.535 165.84V168C120.199 168 119.911 168 119.671 168C119.479 168 119.311 167.976 119.167 167.928C118.543 167.784 118.015 167.448 117.583 166.92C117.199 166.344 117.007 165.696 117.007 164.976L116.935 158.784C115.303 161.856 113.047 164.28 110.167 166.056C107.287 167.832 104.167 168.72 100.807 168.72C96.8708 168.72 93.8948 167.304 91.8788 164.472C89.8628 161.64 88.8548 157.44 88.8548 151.872ZM160.859 168H158.411V147.12C158.411 142.032 157.667 138.288 156.179 135.888C154.739 133.488 152.435 132.288 149.267 132.288C147.011 132.288 144.803 132.84 142.643 133.944C140.483 135 138.587 136.464 136.955 138.336C135.371 140.16 134.219 142.248 133.499 144.6V168H131.051V130.56H133.427V139.92C134.435 137.952 135.779 136.224 137.459 134.736C139.187 133.248 141.107 132.096 143.219 131.28C145.331 130.416 147.491 129.984 149.699 129.984C151.667 129.984 153.347 130.344 154.739 131.064C156.179 131.784 157.331 132.84 158.195 134.232C159.107 135.624 159.779 137.376 160.211 139.488C160.643 141.6 160.859 144.048 160.859 146.832V168ZM169.449 149.424C169.449 145.92 170.193 142.704 171.681 139.776C173.217 136.848 175.281 134.496 177.873 132.72C180.465 130.896 183.417 129.984 186.729 129.984C190.089 129.984 193.065 130.896 195.657 132.72C198.249 134.496 200.265 136.608 201.705 139.056V115.44H204.153V164.256C204.153 164.736 204.273 165.12 204.513 165.408C204.753 165.696 205.065 165.84 205.449 165.84V168C204.873 168.048 204.441 168.024 204.153 167.928C203.481 167.736 202.929 167.352 202.497 166.776C202.065 166.2 201.849 165.576 201.849 164.904V160.368C200.313 162.864 198.225 164.88 195.585 166.416C192.945 167.952 190.233 168.72 187.449 168.72C184.857 168.72 182.457 168.192 180.249 167.136C178.041 166.032 176.121 164.568 174.489 162.744C172.905 160.872 171.657 158.784 170.745 156.48C169.881 154.176 169.449 151.824 169.449 149.424ZM201.705 155.616V142.728C201.033 140.76 199.905 139.008 198.321 137.472C196.737 135.888 194.961 134.64 192.993 133.728C191.025 132.768 189.057 132.288 187.089 132.288C184.785 132.288 182.697 132.768 180.825 133.728C179.001 134.688 177.417 135.984 176.073 137.616C174.729 139.248 173.697 141.096 172.977 143.16C172.305 145.176 171.969 147.264 171.969 149.424C171.969 151.68 172.353 153.84 173.121 155.904C173.937 157.92 175.065 159.744 176.505 161.376C177.993 162.96 179.673 164.208 181.545 165.12C183.465 165.984 185.529 166.416 187.737 166.416C189.129 166.416 190.593 166.152 192.129 165.624C193.713 165.048 195.201 164.256 196.593 163.248C198.033 162.24 199.209 161.088 200.121 159.792C201.033 158.448 201.561 157.056 201.705 155.616ZM212.82 157.272C212.82 155.064 213.492 153.168 214.836 151.584C216.18 149.952 218.004 148.68 220.308 147.768C222.612 146.808 225.3 146.328 228.372 146.328C230.388 146.328 232.476 146.52 234.636 146.904C236.796 147.24 238.74 147.72 240.468 148.344V144.384C240.468 140.736 239.388 137.808 237.228 135.6C235.116 133.344 232.26 132.216 228.66 132.216C226.836 132.216 224.892 132.6 222.828 133.368C220.812 134.136 218.748 135.264 216.636 136.752L215.412 134.952C217.86 133.272 220.188 132.024 222.396 131.208C224.604 130.392 226.74 129.984 228.804 129.984C233.124 129.984 236.556 131.304 239.1 133.944C241.644 136.536 242.916 140.064 242.916 144.528V164.256C242.916 164.784 243.012 165.192 243.204 165.48C243.444 165.72 243.78 165.84 244.212 165.84V168C243.876 168 243.588 168 243.348 168C243.156 168 242.988 167.976 242.844 167.928C242.172 167.784 241.644 167.424 241.26 166.848C240.876 166.272 240.66 165.648 240.612 164.976V161.736C238.884 163.944 236.652 165.672 233.916 166.92C231.18 168.12 228.252 168.72 225.132 168.72C222.828 168.72 220.74 168.216 218.868 167.208C216.996 166.2 215.508 164.832 214.404 163.104C213.348 161.328 212.82 159.384 212.82 157.272ZM239.172 160.512C239.604 159.936 239.916 159.384 240.108 158.856C240.348 158.28 240.468 157.776 240.468 157.344V150.504C238.596 149.784 236.652 149.256 234.636 148.92C232.668 148.536 230.628 148.344 228.516 148.344C224.532 148.344 221.316 149.16 218.868 150.792C216.42 152.376 215.196 154.488 215.196 157.128C215.196 158.856 215.628 160.44 216.492 161.88C217.404 163.32 218.628 164.472 220.164 165.336C221.748 166.2 223.5 166.632 225.42 166.632C228.396 166.632 231.108 166.08 233.556 164.976C236.052 163.824 237.924 162.336 239.172 160.512ZM256.064 181.68C256.832 181.728 257.528 181.728 258.152 181.68C258.776 181.632 259.208 181.464 259.448 181.176C259.736 180.984 260.072 180.552 260.456 179.88C260.888 179.256 261.488 178.008 262.256 176.136C263.072 174.312 264.248 171.6 265.784 168L248.72 130.56H251.384L267.08 165.264L281.84 130.56H284.36L262.976 180.672C262.736 181.248 262.424 181.752 262.04 182.184C261.656 182.664 261.224 183.024 260.744 183.264C260.312 183.552 259.736 183.72 259.016 183.768C258.584 183.864 258.128 183.936 257.648 183.984C257.168 184.032 256.64 184.032 256.064 183.984V181.68ZM302.386 168.72C299.506 168.72 296.818 168.24 294.322 167.28C291.874 166.272 289.714 164.736 287.842 162.672L289.138 160.944C291.154 162.864 293.218 164.28 295.33 165.192C297.442 166.104 299.77 166.56 302.314 166.56C305.818 166.56 308.65 165.816 310.81 164.328C312.97 162.84 314.05 160.776 314.05 158.136C314.05 156.408 313.546 155.064 312.538 154.104C311.578 153.144 310.162 152.376 308.29 151.8C306.466 151.176 304.234 150.552 301.594 149.928C299.002 149.256 296.842 148.608 295.114 147.984C293.434 147.312 292.162 146.424 291.298 145.32C290.434 144.216 290.002 142.68 290.002 140.712C290.002 138.216 290.602 136.2 291.802 134.664C293.05 133.08 294.682 131.904 296.698 131.136C298.762 130.368 301.018 129.984 303.466 129.984C306.442 129.984 309.01 130.488 311.17 131.496C313.33 132.504 314.89 133.776 315.85 135.312L314.266 136.68C313.21 135.192 311.674 134.064 309.658 133.296C307.69 132.528 305.53 132.144 303.178 132.144C301.258 132.144 299.482 132.432 297.85 133.008C296.218 133.584 294.898 134.472 293.89 135.672C292.882 136.824 292.378 138.384 292.378 140.352C292.378 141.936 292.738 143.16 293.458 144.024C294.178 144.888 295.258 145.584 296.698 146.112C298.138 146.592 299.962 147.12 302.17 147.696C305.098 148.416 307.618 149.16 309.73 149.928C311.89 150.648 313.546 151.608 314.698 152.808C315.85 154.008 316.426 155.688 316.426 157.848C316.426 161.208 315.13 163.872 312.538 165.84C309.994 167.76 306.61 168.72 302.386 168.72Z" fill="black"/>
<rect width="8" height="200" fill="#2A9D8F"/>
<rect x="8" width="8" height="200" fill="#E9C46A"/>
<rect x="16" width="8" height="200" fill="#F4A261"/>
<rect x="24" width="8" height="200" fill="#E76F51"/>
</svg>
